<svg xmlns="http://www.w3.org/2000/svg" viewBox="0 0 624.9 166.97"><defs><style>.cls-1{fill:#fff;}.cls-2{fill:none;stroke:#fa0;stroke-miterlimit:10;stroke-width:5px;}.cls-3{fill:#fa0;}</style></defs><title>Ativo 1</title><g id="Camada_2" data-name="Camada 2"><g id="Camada_4" data-name="Camada 4"><polygon class="cls-1" points="400.06 0.09 373.26 0.09 346.45 0.09 298.96 160.18 352.57 160.18 373.26 114.98 393.94 160.18 447.55 160.18 400.06 0.09"/><polygon class="cls-1" points="215.47 0.09 188.66 0.09 161.85 0.09 114.36 160.18 167.98 160.18 188.66 114.98 209.34 160.18 262.96 160.18 215.47 0.09"/><path class="cls-2" d="M188.47,116.42s-30.6-35.56-23.75-46.73c5.26-8.57,34.41-8.2,40.22,0C212.09,79.8,188.47,116.42,188.47,116.42Z"/><circle class="cls-3" cx="188.66" cy="129" r="37.97"/><line class="cls-2" x1="314.47" y1="63.4" x2="432.04" y2="63.4"/><line class="cls-2" x1="442.17" y1="40.41" x2="442.17" y2="86.39"/><line class="cls-2" x1="455.02" y1="47.26" x2="455.02" y2="79.75"/><line class="cls-2" x1="469.28" y1="72.39" x2="469.28" y2="54.87"/><line class="cls-2" x1="304.34" y1="40.41" x2="304.34" y2="86.39"/><line class="cls-2" x1="291.5" y1="47.26" x2="291.5" y2="79.75"/><line class="cls-2" x1="277.24" y1="72.39" x2="277.24" y2="54.87"/><path class="cls-1" d="M555,17.6H506.25V0H624.9V17.6h-49V160.27H555Z"/><path class="cls-1" d="M0,.6H85.67V17.83H20.53V70.69H80.71v17H20.53v72H0Z"/></g></g></svg>