<svg xmlns="http://www.w3.org/2000/svg" viewBox="0 0 624.9 171.88"><defs><style>.cls-1{stroke:#000;}.cls-1,.cls-2,.cls-3{stroke-miterlimit:10;stroke-width:5px;}.cls-2{fill:none;}.cls-2,.cls-3{stroke:#fff;}.cls-3{fill:#fff;}</style></defs><title>Ativo 2</title><g id="Camada_2" data-name="Camada 2"><g id="Camada_3" data-name="Camada 3"><polygon points="400.06 2.5 373.26 2.5 346.45 2.5 298.96 162.59 352.57 162.59 373.26 117.39 393.94 162.59 447.55 162.59 400.06 2.5"/><polygon class="cls-1" points="215.47 2.5 188.66 2.5 161.85 2.5 114.36 162.59 167.98 162.59 188.66 117.39 209.34 162.59 262.96 162.59 215.47 2.5"/><path class="cls-2" d="M188.47,118.83s-30.6-35.56-23.75-46.73c5.26-8.57,34.41-8.2,40.22,0C212.09,82.21,188.47,118.83,188.47,118.83Z"/><circle class="cls-3" cx="188.66" cy="131.41" r="37.97"/><line class="cls-2" x1="314.47" y1="65.81" x2="432.04" y2="65.81"/><line class="cls-2" x1="442.17" y1="42.82" x2="442.17" y2="88.8"/><line class="cls-2" x1="455.02" y1="49.67" x2="455.02" y2="82.16"/><line class="cls-2" x1="469.28" y1="74.8" x2="469.28" y2="57.28"/><line class="cls-2" x1="304.34" y1="42.82" x2="304.34" y2="88.8"/><line class="cls-2" x1="291.5" y1="49.67" x2="291.5" y2="82.16"/><line class="cls-2" x1="277.24" y1="74.8" x2="277.24" y2="57.28"/><path d="M555,20H506.25V2.41H624.9V20h-49V162.68H555Z"/><path d="M0,3H85.67V20.24H20.53V73.1H80.71v17H20.53v72H0Z"/></g></g></svg>